<?xml version="1.0" encoding="utf-8"?>
<!-- Generator: Adobe Illustrator 26.0.0, SVG Export Plug-In . SVG Version: 6.00 Build 0)  -->
<svg version="1.1" id="Calque_1" xmlns="http://www.w3.org/2000/svg" xmlns:xlink="http://www.w3.org/1999/xlink" x="0px" y="0px"
	 viewBox="0 0 116 70" style="enable-background:new 0 0 116 70;" xml:space="preserve">
<style type="text/css">
	.st0{fill:#FFFFFF;}
</style>
<g>
	<path class="st0" d="M79.52,1.17c-8.55,0-16.34,3.19-22.28,8.44c-5.87-5.09-13.52-8.18-21.87-8.18c-18.44,0-33.44,15-33.44,33.44
		c0,14.77,9.91,27.97,24.09,32.11c0.05,0.02,0.08,0.03,0.11,0.04c0.05,0.02,0.08,0.03,0.11,0.03c0.02,0.01,0.04,0.01,0.06,0.02
		c0.12,0.04,0.24,0.07,0.37,0.1l0.01-0.01l0.21,0.05c2.76,0.73,5.61,1.09,8.49,1.09c7.97,0,15.7-2.87,21.76-8.07l0.04-0.04
		l0.07-0.03l-0.01-0.01l0.08-0.08c5.93,5.21,13.7,8.38,22.21,8.38c18.59,0,33.66-15.07,33.66-33.66
		C113.17,16.24,98.1,1.17,79.52,1.17z M29.96,5.2L30,4.95l0.24-0.04c1.7-0.29,3.42-0.43,5.12-0.43c6.65,0,12.98,2.12,18.29,6.13
		l0.13,0.1l0.01,0.16c0.02,0.46,0.03,0.86,0.03,1.23c0,2.41-0.28,4.82-0.85,7.15c-0.69,2.87-1.8,5.63-3.3,8.19
		c-1.67,2.86-3.78,5.41-6.28,7.59l-0.2,0.17l-0.22-0.15C34.6,29.39,29.6,19.98,29.6,9.87C29.6,8.31,29.72,6.74,29.96,5.2z
		 M17.29,59.31C9.57,53.58,4.96,44.45,4.96,34.88c0-6.6,2.09-12.88,6.04-18.17c3.82-5.11,9.26-8.96,15.31-10.85l0.5-0.16l-0.06,0.52
		c-0.13,1.22-0.2,2.44-0.2,3.65c0,5.8,1.5,11.5,4.35,16.51c2.31,4.07,5.54,7.69,9.35,10.48l0.4,0.29l-0.41,0.27
		c-3.52,2.34-7.57,3.95-11.71,4.66l-0.08,0.01c-0.26,0.04-0.5,0.08-0.74,0.11l-0.24,0.04c-2.1,0.41-4.1,1.37-5.76,2.77
		c-2.31,1.95-3.86,4.66-4.37,7.62c-0.12,0.71-0.18,1.44-0.18,2.17c0,1.41,0.23,2.79,0.67,4.12l0.35,1.04L17.29,59.31z M36.38,42.95
		l-0.4,0.8c-1.35,2.67-2.17,5.55-2.45,8.55l-0.07,0.75l-0.52-0.55c-1.92-2.01-3.39-4.34-4.39-6.92l-0.15-0.39l0.41-0.07
		c0.06-0.01,0.12-0.02,0.18-0.03l0.12-0.02c1.09-0.19,2.19-0.44,3.27-0.74c1.07-0.3,2.14-0.66,3.17-1.06L36.38,42.95z M47.68,62.67
		c-3.89,1.73-8.04,2.61-12.32,2.61c-2.87,0-5.71-0.4-8.45-1.2c-4.02-1.32-6.71-5.05-6.71-9.27c0-0.56,0.05-1.12,0.14-1.66
		c0.39-2.26,1.57-4.32,3.33-5.8c0.45-0.38,0.95-0.73,1.47-1.03l0.35-0.2l0.14,0.38c1.68,4.46,4.61,8.29,8.5,11.07
		c3.92,2.81,8.56,4.35,13.41,4.45l1.54,0.03L47.68,62.67z M52.55,58.48c-1.48,0.33-3,0.49-4.51,0.49c-4.07,0-8.01-1.17-11.4-3.39
		l-0.15-0.1l-0.01-0.18c-0.01-0.26-0.02-0.52-0.02-0.79c0-5.13,1.88-10.07,5.29-13.89l0.44-0.49l0.16,0.64
		c0.64,2.63,1.6,5.17,2.86,7.57c1.22,2.32,2.71,4.5,4.45,6.48c0.93,1.07,1.96,2.1,3.05,3.06l0.51,0.45L52.55,58.48z"/>
	<path class="st0" d="M42.2,14.04c1.55-2.03,0.14-4.27-1.79-4.27c-1.36,0-2.46,1.1-2.46,2.46C37.95,14.16,40.17,15.57,42.2,14.04z"
		/>
</g>
</svg>
